<svg xmlns="http://www.w3.org/2000/svg" viewBox="0 0 445.69 437.58"><defs><style>.cls-1,.cls-11,.cls-12,.cls-25,.cls-26,.cls-5,.cls-6,.cls-7,.cls-8,.cls-9{fill:#fff;}.cls-11,.cls-12,.cls-13,.cls-15,.cls-16,.cls-17,.cls-18,.cls-2,.cls-20,.cls-21,.cls-22,.cls-24,.cls-3,.cls-4,.cls-5,.cls-6,.cls-7,.cls-8,.cls-9{isolation:isolate;}.cls-11,.cls-12,.cls-13,.cls-15,.cls-16,.cls-24,.cls-25,.cls-26,.cls-3,.cls-4,.cls-5,.cls-6,.cls-7,.cls-8,.cls-9{font-size:16px;}.cls-13,.cls-15,.cls-16,.cls-17,.cls-18,.cls-20,.cls-21,.cls-22,.cls-23,.cls-24,.cls-3,.cls-4{fill:#313131;}.cls-11,.cls-12,.cls-13,.cls-15,.cls-16,.cls-17,.cls-18,.cls-20,.cls-21,.cls-22,.cls-24,.cls-25,.cls-26,.cls-3,.cls-4,.cls-5,.cls-6,.cls-7,.cls-8,.cls-9{font-family:ProximaNova-Bold, Proxima Nova;font-weight:700;}.cls-26,.cls-3,.cls-5{letter-spacing:0.04em;}.cls-25,.cls-4{letter-spacing:0.04em;}.cls-14,.cls-15,.cls-6{letter-spacing:0.03em;}.cls-7{letter-spacing:-0.02em;}.cls-8{letter-spacing:0.01em;}.cls-9{letter-spacing:-0.08em;}.cls-10{letter-spacing:-0.02em;}.cls-11{letter-spacing:0.01em;}.cls-12{letter-spacing:0.02em;}.cls-13{letter-spacing:0.02em;}.cls-17,.cls-18,.cls-20,.cls-21,.cls-22{font-size:12.36px;}.cls-17{letter-spacing:0.01em;}.cls-18{letter-spacing:-0.08em;}.cls-19{letter-spacing:-0.02em;}.cls-20{letter-spacing:0.04em;}.cls-21{letter-spacing:0.03em;}.cls-22{letter-spacing:0.04em;}.cls-24{letter-spacing:-0.03em;}</style></defs><title>app-data-flow</title><g id="Layer_2" data-name="Layer 2"><g id="Layer_1-2" data-name="Layer 1"><circle class="cls-1" cx="222.65" cy="62" r="62"/><circle class="cls-1" cx="62" cy="263.89" r="62"/><circle class="cls-1" cx="294.59" cy="375.58" r="62"/><circle class="cls-1" cx="383.69" cy="263.53" r="62"/><circle class="cls-1" cx="351.71" cy="123.97" r="62"/><circle class="cls-1" cx="151.69" cy="375.53" r="62"/><circle class="cls-1" cx="93.65" cy="124" r="62"/><path class="cls-1" d="M284.37,60.9l9.17,17.81a3.44,3.44,0,0,1-1.31,4.53L275,93.43a3.43,3.43,0,0,1-5.05-3.9l8.07-28a3.44,3.44,0,0,1,4.26-2.34,3.4,3.4,0,0,1,2.1,1.72Z"/><path class="cls-1" d="M381.73,178.05,370.59,194.7a3.43,3.43,0,0,1-4.59,1.05l-17.27-10.14a3.43,3.43,0,0,1,1-6.31l28.41-6.51a3.44,3.44,0,0,1,3.62,5.26Z"/><path class="cls-1" d="M376.43,325.11l-19,6.49a3.44,3.44,0,0,1-4.29-2l-7.58-18.54a3.44,3.44,0,0,1,4.6-4.43l26.54,12.05a3.44,3.44,0,0,1-.31,6.38Z"/><path class="cls-1" d="M235.14,395l-13.86-14.47a3.45,3.45,0,0,1,0-4.71l13.63-14.68a3.44,3.44,0,0,1,6,2.31l.22,29.14a3.44,3.44,0,0,1-5.91,2.41Z"/><path class="cls-1" d="M95.73,348.68l-.69-20a3.43,3.43,0,0,1,3.12-3.53l19.94-1.86A3.44,3.44,0,0,1,121,329l-19.26,21.88a3.44,3.44,0,0,1-6-2.16Z"/><path class="cls-1" d="M57.18,202.16,74.1,191.44a3.44,3.44,0,0,1,4.63.9L90.42,208.6A3.43,3.43,0,0,1,87,214l-28.62-5.55a3.44,3.44,0,0,1-1.18-6.27Z"/><path class="cls-1" d="M125,70.46l20,1.6a3.43,3.43,0,0,1,3.16,3.49l-.42,20a3.43,3.43,0,0,1-6,2.23L122.21,76.19a3.43,3.43,0,0,1,.24-4.84h0A3.49,3.49,0,0,1,125,70.46Z"/><g class="cls-2"><text class="cls-3" transform="translate(214.01 80.77) rotate(0.1)">UI</text><text class="cls-4" transform="translate(195.75 97.23) rotate(0.1)">EVENT</text></g><g class="cls-2"><text class="cls-5" transform="translate(167.11 223.69) rotate(0.1)">APPLI</text><text class="cls-6" transform="translate(213.97 223.77) rotate(0.1)">C</text><text class="cls-7" transform="translate(225.49 223.79) rotate(0.1)">A</text><text class="cls-5" transform="translate(236.05 223.81) rotate(0.1)">TION</text><text class="cls-8" transform="translate(174.82 240.19) rotate(0.1)">D</text><text class="cls-9" transform="translate(186.4 240.21) rotate(0.1)">A<tspan class="cls-10" x="9.6" y="0">T</tspan></text><text class="cls-5" transform="translate(205.89 240.25) rotate(0.1)">A F</text><text class="cls-11" transform="translate(231.98 240.29) rotate(0.1)">L</text><text class="cls-12" transform="translate(240.56 240.31) rotate(0.1)">O</text><text class="cls-5" transform="translate(253.12 240.33) rotate(0.1)">W</text></g><g class="cls-2"><text class="cls-13" transform="translate(311.72 144.71) rotate(0.1)">A<tspan class="cls-14" x="11.31" y="0">S</tspan></text><text class="cls-3" transform="translate(333.32 144.75) rotate(0.1)">YNC JS</text><text class="cls-15" transform="translate(331.07 161.23) rotate(0.1)">C</text><text class="cls-3" transform="translate(342.59 161.25) rotate(0.1)">ALL</text></g><g class="cls-2"><text class="cls-3" transform="translate(366.92 280.75) rotate(0.1)">PHP</text><text class="cls-3" transform="translate(344.87 297.2) rotate(0.1)">HANDLE</text><text class="cls-16" transform="translate(412.2 297.32) rotate(0.1)">R</text></g><g class="cls-2"><text class="cls-17" transform="translate(261.63 396.32) rotate(0.1)">D</text><text class="cls-18" transform="translate(270.58 396.34) rotate(0.1)">A<tspan class="cls-19" x="7.42" y="0">T</tspan></text><text class="cls-20" transform="translate(285.63 396.36) rotate(0.1)">AB</text><text class="cls-21" transform="translate(303.26 396.39) rotate(0.1)">A</text><text class="cls-22" transform="translate(312.13 396.41) rotate(0.1)">SE</text><text class="cls-20" transform="translate(255.51 410.86) rotate(0.1)">PROCEDURE</text></g><path class="cls-23" d="M240.18,19.51H205.13a.87.87,0,0,0-.88.86h0V55.44a.87.87,0,0,0,.87.87h35.06a.87.87,0,0,0,.88-.86h0V20.38a.87.87,0,0,0-.87-.87Zm-.87,1.74v7.57H206V21.25ZM206,54.57v-24H239.3v24Z"/><rect class="cls-23" x="208.47" y="23.73" width="2.88" height="2.88" rx="0.87"/><rect class="cls-23" x="213.52" y="23.73" width="2.88" height="2.88" rx="0.87"/><path class="cls-23" d="M350.83,109.84a8.79,8.79,0,0,1-3.36-.93,1.1,1.1,0,0,0-1.31,1.77.91.91,0,0,0,.34.17,10.92,10.92,0,0,0,4.18,1.19h.77a11,11,0,1,0-11-11,11.21,11.21,0,0,0,.52,3.35l-1.14-.46a1.1,1.1,0,0,0-1.41.66h0A1.09,1.09,0,0,0,339,106l3.72,1.5a1.15,1.15,0,0,0,.41.08,1.1,1.1,0,0,0,1-.69l1.51-3.73a1.1,1.1,0,0,0-.7-1.39,1.11,1.11,0,0,0-1.3.5v.07l-.55,1.39a8.8,8.8,0,1,1,11,5.79,9,9,0,0,1-3.26.37Z"/><path class="cls-23" d="M370.51,112.14l-2.2.31a20.34,20.34,0,1,0-5.87,5.71,1.1,1.1,0,0,0-1.17-1.86h0a18.15,18.15,0,1,1,5.22-5.1l-.34-2.37a1.11,1.11,0,1,0-2.2.31h0l.7,5a1.11,1.11,0,0,0,1.1,1h.15l4.92-.7a1.11,1.11,0,0,0-.31-2.2Z"/><path class="cls-23" d="M222.52,37.48c.17-.52.45-.52.62,0l.83,2.57a1.48,1.48,0,0,0,1.31,1H228c.55,0,.64.26.19.59L226,43.18a1.45,1.45,0,0,0-.5,1.53l.83,2.58c.17.52,0,.68-.5.36l-2.18-1.59a1.49,1.49,0,0,0-1.62,0l-2.19,1.59c-.44.32-.67.16-.5-.36l.84-2.58a1.47,1.47,0,0,0-.5-1.53l-2.19-1.59c-.44-.33-.36-.59.19-.59h2.7a1.48,1.48,0,0,0,1.31-1Z"/><path class="cls-23" d="M392.14,227.26a3,3,0,0,0-1.38.37V224a2.86,2.86,0,0,0-2.82-2.9h0a2.8,2.8,0,0,0-1.52.41,2.88,2.88,0,0,0-5.73.44v1.59a2.83,2.83,0,0,0-4.25,2.5h0v14l-3.73-1.63a2.81,2.81,0,0,0-3.09.6,2.87,2.87,0,0,0-.81,2,2.83,2.83,0,0,0,.81,1.9l5.37,6.5v9.32a.76.76,0,0,0,.75.75h18.54a.77.77,0,0,0,.75-.75V230.08A2.89,2.89,0,0,0,392.14,227.26ZM393.53,258h-17v-2.49h13a.75.75,0,0,0,0-1.5h-13V249.1a.66.66,0,0,0-.18-.48l-5.58-6.77a1.31,1.31,0,0,1-.41-.91,1.34,1.34,0,0,1,.38-.93,1.3,1.3,0,0,1,1.49-.27l4.81,2.08a.71.71,0,0,0,1-.26.78.78,0,0,0,.09-.37V226a1.38,1.38,0,0,1,2.76,0v11.17a.77.77,0,0,0,.75.75.76.76,0,0,0,.75-.75V221.9a1.39,1.39,0,0,1,2.77,0v15.26a.74.74,0,0,0,.73.75h0a.77.77,0,0,0,.75-.75V224a1.38,1.38,0,0,1,2.75-.23.88.88,0,0,1,0,.23v13.21a.75.75,0,0,0,1.5,0v-7.08a1.39,1.39,0,0,1,2.77,0V258Z"/><path class="cls-23" d="M282.53,360.11a5.67,5.67,0,0,0,11.34,0h0a1.23,1.23,0,0,1,1.23-1.23,1.21,1.21,0,0,1,1.23,1.22h0a8.14,8.14,0,1,1-8.15-8.13h0a1.23,1.23,0,0,1,1.23,1.23,1.21,1.21,0,0,1-1.22,1.23h0A5.67,5.67,0,0,0,282.53,360.11Zm-9.86,4.22,1.79.31a14,14,0,0,0,.83,2l-1.05,1.47a3.19,3.19,0,0,0,.36,4.09l1.52,1.52a3.19,3.19,0,0,0,4.08.35l1.48-1a15.89,15.89,0,0,0,2,.83l.31,1.79a3.2,3.2,0,0,0,3.13,2.67h2.15a3.18,3.18,0,0,0,3.14-2.64l.32-1.79a14.53,14.53,0,0,0,2-.83l1.48,1a3.17,3.17,0,0,0,4.08-.36l1.55-1.52a3.19,3.19,0,0,0,.35-4.08l-1-1.48a14.48,14.48,0,0,0,.82-2l1.79-.32a1.23,1.23,0,1,0-.27-2.45h-.15l-2.54.44a1.22,1.22,0,0,0-1,.89,12,12,0,0,1-1.19,2.87,1.22,1.22,0,0,0,.06,1.32l1.48,2.12a.73.73,0,0,1-.08.92L298.53,372a.71.71,0,0,1-.92.08l-2.11-1.48a1.24,1.24,0,0,0-1.32-.06,12,12,0,0,1-2.87,1.19,1.25,1.25,0,0,0-.9,1l-.43,2.5a.72.72,0,0,1-.71.59h-2.15a.72.72,0,0,1-.71-.59L286,372.7a1.22,1.22,0,0,0-.89-1,12,12,0,0,1-2.87-1.19,1.24,1.24,0,0,0-1.32.06l-2.11,1.48a.71.71,0,0,1-.92-.08l-1.53-1.52a.73.73,0,0,1-.08-.92l1.48-2.11a1.23,1.23,0,0,0,.06-1.33,11.62,11.62,0,0,1-1.19-2.84,1.24,1.24,0,0,0-1-.89l-2.54-.44a.71.71,0,0,1-.58-.74V359a.72.72,0,0,1,.59-.71l2.54-.44a1.24,1.24,0,0,0,1-.89,12,12,0,0,1,1.19-2.87,1.25,1.25,0,0,0-.06-1.33l-1.48-2.11a.71.71,0,0,1,.08-.92l1.52-1.52a.71.71,0,0,1,.92-.08l2.11,1.48a1.23,1.23,0,0,0,1.33.06,12.24,12.24,0,0,1,2.84-1.2,1.24,1.24,0,0,0,.89-1l.44-2.53a1.23,1.23,0,0,0-2.4-.54h0v.11l-.29,1.8a14,14,0,0,0-2,.82l-1.48-1a3.19,3.19,0,0,0-4.08.35L274.59,348a3.18,3.18,0,0,0-.39,4.08l1.05,1.48a14.53,14.53,0,0,0-.83,2l-1.79.31A3.2,3.2,0,0,0,270,359v2.15a3.19,3.19,0,0,0,2.63,3.14Zm45.16-20.1v1.69a2.77,2.77,0,0,1-2.3,2.73l-1.25.22a12.83,12.83,0,0,1-.55,1.33l.73,1a2.75,2.75,0,0,1-.31,3.55L313,356a2.75,2.75,0,0,1-3.55.31l-1-.73a12.67,12.67,0,0,1-1.32.55l-.23,1.23a2.75,2.75,0,0,1-2.73,2.29h-1.77a2.77,2.77,0,0,1-2.73-2.29l-.22-1.26a10.33,10.33,0,0,1-1.33-.55l-1,.74a2.78,2.78,0,0,1-3.55-.31l-1.2-1.2a2.75,2.75,0,0,1-.31-3.55l.73-1.05a12.67,12.67,0,0,1-.55-1.32l-1.23-.2a2.75,2.75,0,0,1-2.29-2.73v-1.69A2.75,2.75,0,0,1,291,341.5l1.26-.23a10.82,10.82,0,0,1,.55-1.32l-.74-1a2.79,2.79,0,0,1,.31-3.56l1.18-1.17a2.78,2.78,0,0,1,3.55-.31l1,.73c.43-.21.88-.4,1.33-.57l.22-1.25a2.77,2.77,0,0,1,2.73-2.3h1.69a2.77,2.77,0,0,1,2.73,2.3l.23,1.25a12.67,12.67,0,0,1,1.32.55l1-.73a2.75,2.75,0,0,1,3.55.31l1.18,1.2a2.78,2.78,0,0,1,.31,3.55l-.73,1a12.6,12.6,0,0,1,.54,1.32l1.26.23a2.76,2.76,0,0,1,2.37,2.73Zm-2.47,0a.29.29,0,0,0-.25-.3l-2-.35a1.25,1.25,0,0,1-1-.9,8.74,8.74,0,0,0-.91-2.19,1.23,1.23,0,0,1,.06-1.33l1.17-1.67a.29.29,0,0,0,0-.39l-1.2-1.2a.29.29,0,0,0-.39,0l-1.69,1.1a1.22,1.22,0,0,1-1.32.06,9.63,9.63,0,0,0-2.2-.91,1.22,1.22,0,0,1-.9-1l-.34-2a.31.31,0,0,0-.3-.25h-1.7a.3.3,0,0,0-.3.26l-.35,2a1.24,1.24,0,0,1-.89,1,8.81,8.81,0,0,0-2.2.91,1.23,1.23,0,0,1-1.33-.06l-1.67-1.17a.29.29,0,0,0-.39,0l-1.2,1.2a.29.29,0,0,0,0,.39l1.17,1.66a1.23,1.23,0,0,1,.06,1.33,9.2,9.2,0,0,0-.91,2.2,1.24,1.24,0,0,1-1,.89l-2,.35a.31.31,0,0,0-.25.3v1.7a.3.3,0,0,0,.26.3l2,.35a1.22,1.22,0,0,1,1,.89,9.23,9.23,0,0,0,.92,2.2,1.24,1.24,0,0,1-.06,1.32L294,352.66a.29.29,0,0,0,0,.39l1.21,1.21a.29.29,0,0,0,.39,0l1.67-1.17a1.24,1.24,0,0,1,1.32-.06,9,9,0,0,0,2.17.91,1.21,1.21,0,0,1,.89,1l.35,2a.32.32,0,0,0,.3.26H304a.3.3,0,0,0,.3-.26l.35-2a1.22,1.22,0,0,1,.89-1,9.23,9.23,0,0,0,2.2-.92,1.25,1.25,0,0,1,1.33.06l1.66,1.17a.33.33,0,0,0,.4,0l1.2-1.21a.29.29,0,0,0,0-.39l-1-1.65a1.22,1.22,0,0,1-.06-1.32,9.67,9.67,0,0,0,.91-2.18,1.22,1.22,0,0,1,1-.89l2-.37a.32.32,0,0,0,.25-.3Zm-6.31.84a5.82,5.82,0,1,1-5.83-5.81h0a5.81,5.81,0,0,1,5.81,5.81Zm-2.46,0a3.36,3.36,0,1,0-3.36,3.36h0a3.35,3.35,0,0,0,3.35-3.35Z"/><g class="cls-2"><text class="cls-3" transform="translate(134.92 392.75) rotate(0.1)">PHP</text><text class="cls-3" transform="translate(112.87 409.2) rotate(0.1)">HANDLE</text><text class="cls-16" transform="translate(180.2 409.32) rotate(0.1)">R</text></g><path class="cls-23" d="M160.14,339.26a3,3,0,0,0-1.38.37V336a2.86,2.86,0,0,0-2.82-2.9h0a2.8,2.8,0,0,0-1.52.41,2.88,2.88,0,0,0-5.73.44v1.59a2.83,2.83,0,0,0-4.25,2.5h0v14l-3.73-1.63a2.81,2.81,0,0,0-3.09.6,2.87,2.87,0,0,0-.81,2,2.83,2.83,0,0,0,.81,1.9l5.37,6.5v9.32a.76.76,0,0,0,.75.75h18.54a.77.77,0,0,0,.75-.75V342.08A2.89,2.89,0,0,0,160.14,339.26ZM161.53,370h-17v-2.49h13a.75.75,0,0,0,0-1.5h-13V361.1a.66.66,0,0,0-.18-.48l-5.58-6.77a1.31,1.31,0,0,1-.41-.91,1.34,1.34,0,0,1,.38-.93,1.3,1.3,0,0,1,1.49-.27l4.81,2.08a.71.71,0,0,0,1-.26.78.78,0,0,0,.09-.37V338a1.38,1.38,0,0,1,2.76,0v11.17a.77.77,0,0,0,.75.75.76.76,0,0,0,.75-.75V333.9a1.39,1.39,0,0,1,2.77,0v15.26a.74.74,0,0,0,.73.75h0a.77.77,0,0,0,.75-.75V336a1.38,1.38,0,1,1,2.75-.23.88.88,0,0,1,0,.23v13.21a.75.75,0,0,0,1.5,0v-7.08a1.39,1.39,0,0,1,2.77,0V370Z"/><g class="cls-2"><text class="cls-3" transform="translate(40.79 280.75) rotate(0.1)">JSON</text><text class="cls-24" transform="translate(26.84 297.22) rotate(0.1)">P</text><text class="cls-3" transform="translate(36.28 297.23) rotate(0.1)">ARSING</text></g><path class="cls-23" d="M85.42,255.41a8.16,8.16,0,1,1,0-16.32,8.26,8.26,0,0,1,8.16,8.15A8.17,8.17,0,0,1,85.42,255.41Zm0-12.79a4.62,4.62,0,0,0,0,9.24A4.69,4.69,0,0,0,90,247.24,4.62,4.62,0,0,0,85.42,242.62Z"/><path class="cls-1" d="M85.42,239.34a8,8,0,0,1,7.91,7.91,7.91,7.91,0,1,1-7.91-7.91m0,12.77h0a4.93,4.93,0,0,0,4.86-4.87,4.87,4.87,0,1,0-4.87,4.87m0-13.27a8.41,8.41,0,1,0,8.41,8.41h0a8.47,8.47,0,0,0-8.41-8.4Zm0,12.77a4.37,4.37,0,1,1,4.37-4.37,4.44,4.44,0,0,1-4.37,4.37Z"/><path class="cls-23" d="M66.52,254.29a1.77,1.77,0,0,1-1.29-.53,1.82,1.82,0,0,1,0-2.58l2.09-2.07H52.8a1.8,1.8,0,1,1,0-3.6H67.34l-2.09-2.08a1.8,1.8,0,0,1,0-2.56,1.79,1.79,0,0,1,2.56,0l5.09,5.22a1.84,1.84,0,0,1,0,2.56l-5.09,5.1a1.78,1.78,0,0,1-1.29.54Z"/><path class="cls-1" d="M66.53,240.59a1.54,1.54,0,0,1,1.1.45l5.09,5.23a1.59,1.59,0,0,1,0,2.21l-5.09,5.1a1.58,1.58,0,0,1-1.13.46,1.6,1.6,0,0,1-1.11-.45,1.58,1.58,0,0,1,0-2.23l1.66-1.64.87-.86H52.8a1.55,1.55,0,1,1,0-3.1H67.94l-.86-.85-1.66-1.65a1.56,1.56,0,0,1,1.11-2.67m0-.5a2.06,2.06,0,0,0-1.46,3.52l1.66,1.65H52.8a2.05,2.05,0,1,0,0,4.1H66.7L65,251A2.08,2.08,0,0,0,68,253.93l5.09-5.1a2.08,2.08,0,0,0,0-2.91L68,240.69a2.06,2.06,0,0,0-1.46-.6Z"/><path class="cls-23" d="M33,255.15a1.81,1.81,0,0,1-1.8-1.76V241.11a1.8,1.8,0,0,1,1.8-1.75H45.26a1.84,1.84,0,0,1,1.75,1.8V253.4a1.81,1.81,0,0,1-1.75,1.75Zm1.83-3.55h8.64v-8.71H34.82Z"/><path class="cls-1" d="M45.25,239.61a1.59,1.59,0,0,1,1.51,1.55v12.23a1.55,1.55,0,0,1-1.5,1.51H33a1.56,1.56,0,0,1-1.55-1.5V241.12A1.55,1.55,0,0,1,33,239.61H45.25M34.57,251.85h9.14v-9.21H34.57v9.21m10.69-12.74H33a2.06,2.06,0,0,0-2.05,2V253.4a2.07,2.07,0,0,0,2.05,2H45.26a2.06,2.06,0,0,0,2-2V241.16a2.1,2.1,0,0,0-2-2ZM35.07,251.35v-8.21h8.14v8.21Z"/><g class="cls-2"><text class="cls-3" transform="translate(85.01 142.77) rotate(0.1)">UI</text><text class="cls-3" transform="translate(59.39 159.22) rotate(0.1)">DISPL</text><text class="cls-24" transform="translate(106.41 159.3) rotate(0.1)">A</text><text class="cls-3" transform="translate(116.92 159.32) rotate(0.1)">Y</text></g><path class="cls-23" d="M111.18,81.51h-35a.87.87,0,0,0-.88.86h0v35.06a.87.87,0,0,0,.87.87h35.06a.87.87,0,0,0,.88-.86h0V82.38a.87.87,0,0,0-.87-.87h-.06Zm-.87,1.74v7.57H77V83.25ZM77,116.57v-24H110.3v24Z"/><rect class="cls-23" x="79.47" y="85.73" width="2.88" height="2.88" rx="0.87"/><rect class="cls-23" x="84.52" y="85.73" width="2.88" height="2.88" rx="0.87"/><path class="cls-23" d="M92.16,109.5a1,1,0,0,1-.69-.29l-5-4.66a1,1,0,0,1,0-1.38l.69-.68a.94.94,0,0,1,.69-.29.92.92,0,0,1,.68.29l3.58,3.36,6.32-6.56a1,1,0,0,1,.69-.28h0a1,1,0,0,1,.68.28l.69.69a1,1,0,0,1,0,1.38l-7.69,7.85A1,1,0,0,1,92.16,109.5Z"/><path class="cls-1" d="M294.87,267.66l-8.27,1.18a76.5,76.5,0,1,0-22.06,21.46,4.14,4.14,0,0,0-4.42-7l-.07.05a68.26,68.26,0,1,1,19.62-19.17l-1.26-8.91a4.17,4.17,0,1,0-8.27,1.15h0L272.77,275a4.13,4.13,0,0,0,4.13,3.56h.58L296,276a4.18,4.18,0,0,0-1.14-8.28Z"/><text class="cls-25" transform="translate(167.11 14.63)">1</text><text class="cls-26" transform="translate(306.59 67.57)">2</text><text class="cls-26" transform="translate(395.03 196.22)">3</text><text class="cls-26" transform="translate(357.59 357.2)">4</text><text class="cls-26" transform="translate(205.89 337.65)">5</text><text class="cls-26" transform="translate(15.3 205.65)">6</text><text class="cls-26" transform="translate(40.79 70.45)">7</text></g></g></svg>