<svg xmlns="http://www.w3.org/2000/svg"  viewBox="0 0 24 24" width="800px" height="800px"><path d="M 10.912109 0.083984375 L 10.009766 0.51367188 L 9.1035156 0.93554688 C 9.1865156 1.1135469 9.9599531 2.6791875 11.376953 2.7421875 C 11.816953 2.7621875 12.082953 2.7927344 12.126953 2.8027344 C 12.131953 2.8077344 12.173328 2.8631094 12.236328 3.0371094 C 12.291328 3.2771094 12.313594 4.2129844 12.308594 5.2089844 C 11.967594 4.6509844 11.557422 4.0837813 11.107422 3.6757812 C 9.8434219 2.5337813 8.2536563 2.7561719 6.8476562 2.9511719 L 6.3828125 3.0136719 C 5.7948125 3.0926719 5.5615625 2.7327188 5.4765625 2.5117188 L 4.5351562 2.8515625 L 3.5898438 3.171875 C 3.8388438 3.908875 4.797625 5.2390469 6.640625 4.9980469 L 7.1230469 4.9316406 C 8.4450469 4.7456406 9.2215781 4.6652031 9.7675781 5.1582031 C 10.348578 5.6832031 10.944766 6.8093281 11.259766 7.4863281 L 11.230469 7.5175781 L 11.265625 7.5273438 C 11.268625 7.5243437 11.270438 7.5205781 11.273438 7.5175781 C 11.352438 7.4115781 11.432672 7.3041719 11.513672 7.2011719 L 12.539062 6.0566406 L 12.693359 5.8847656 L 12.720703 5.8554688 C 12.724703 5.8514688 12.727469 5.8487031 12.730469 5.8457031 C 14.776469 6.2807031 16.577766 6.5516563 18.009766 6.7226562 C 17.505766 6.9486562 17.127297 7.3597188 17.029297 7.8867188 C 16.857297 8.8157188 17.604219 9.7344531 18.699219 9.9394531 C 19.794219 10.143453 20.822094 9.5540469 20.996094 8.6230469 C 21.004094 8.5810469 21.001859 8.5400469 21.005859 8.4980469 C 20.807859 8.7980469 20.484656 9.0097656 20.097656 9.0097656 C 19.486656 9.0097656 18.990234 8.5133437 18.990234 7.9023438 C 18.990234 7.4313437 19.294938 7.0524844 19.710938 6.8964844 C 20.634937 6.9744844 21.2385 6.9979062 21.4375 7.0039062 C 20.7505 5.0899063 19.397922 4.5220625 18.544922 4.2890625 C 16.803922 3.8140625 15.414234 4.0697031 14.240234 4.7207031 C 14.265234 3.7497031 14.263766 2.7820625 14.134766 2.4140625 C 13.623766 0.9510625 12.704703 0.80009375 11.470703 0.74609375 C 11.351703 0.71809375 11.065109 0.40098438 10.912109 0.083984375 z M 3.5234375 7.2402344 C 3.3958438 7.2329375 3.2937812 7.2503437 3.2382812 7.3085938 C 2.8392812 7.7285937 3.69425 9.2899375 3.90625 9.7109375 C 4.46725 10.822938 5.2496563 11.792125 6.0976562 12.703125 C 7.2476562 13.938125 8.8674219 14.664062 10.357422 14.664062 C 10.670422 14.664062 10.977437 14.632406 11.273438 14.566406 C 12.374437 14.321406 13.160328 13.626281 13.486328 12.613281 C 13.788328 11.672281 13.691984 10.788641 13.208984 10.056641 C 12.510984 9.0026406 11.200078 8.5295 10.205078 8.4375 C 9.0030781 8.3265 7.9449063 8.2097187 6.7539062 8.0117188 C 6.1169063 7.9057187 5.332125 7.7046875 4.703125 7.5546875 C 4.509625 7.5081875 3.9062187 7.262125 3.5234375 7.2402344 z M 21.835938 8.7265625 L 21.853516 11.390625 L 23.757812 10.867188 L 22.457031 10.201172 L 24.082031 9.6054688 L 21.835938 8.7265625 z M 14.630859 10.716797 C 14.790859 11.423797 14.774344 12.182219 14.527344 12.949219 C 14.084344 14.327219 12.985719 15.305766 11.511719 15.634766 C 11.142719 15.716766 10.754422 15.759766 10.357422 15.759766 C 8.6104219 15.759766 6.8056563 14.959094 5.4726562 13.621094 C 3.3736562 14.785094 1.0728437 15.562125 0.21484375 15.828125 C 0.03284375 15.884125 -0.031390625 16.110047 0.099609375 16.248047 C 1.8196094 18.043047 6.8271406 20.962891 11.744141 20.962891 C 16.694141 20.962891 20.876312 16.940297 21.695312 12.029297 C 18.889312 11.971297 16.495859 11.388797 14.630859 10.716797 z"/></svg>